# xmcd
#
# Track frame offsets: 
#        150
#        22675
#        48271
#        70591
#        93777
#
# Disc length: 1544 seconds
#
# Revision: 0
# Processed by: cddbd v1.5.2PL0 Copyright (c) Steve Scherf et al.
# Submitted via: ExactAudioCopyFreeDBPlugin 1.0
#
DISCID=2a060605
DTITLE=Suara - 声  Special Disc
DYEAR=2015
DGENRE=JPop
TTITLE0=春夏秋冬
TTITLE1=桜
TTITLE2=君がいた夏の日
TTITLE3=月明かりに照らされて
TTITLE4=十二月の雨
EXTD=
EXTT0=
EXTT1=
EXTT2=
EXTT3=
EXTT4=
PLAYORDER=
